<?xml version="1.0" encoding="UTF-8"?>
<svg version="1.1" xmlns="http://www.w3.org/2000/svg" width="282" height="286">
<path d="M0 0 C1.13756744 -0.00191345 2.27513489 -0.0038269 3.44717407 -0.00579834 C5.84238914 -0.00715325 8.23761173 -0.00350555 10.6328125 0.00488281 C14.27100379 0.01557194 17.9086991 0.00497374 21.546875 -0.0078125 C23.88541774 -0.0064904 26.22396018 -0.00392695 28.5625 0 C29.63680267 -0.00404846 30.71110535 -0.00809692 31.81796265 -0.01226807 C44.39230307 0.06460467 56.81946703 1.88776669 66.50537109 10.66235352 C72.90310395 17.94379401 77.06103156 27.14788082 81.20385742 35.82641602 C82.10135259 37.70268617 83.013766 39.57116188 83.92773438 41.43945312 C93.51225759 61.22630479 93.51225759 61.22630479 93.4140625 71.328125 C93.42953125 72.92333984 93.42953125 72.92333984 93.4453125 74.55078125 C92.02734251 84.46614493 87.06710257 93.41017297 82.58813477 102.25366211 C81.60649113 104.19338604 80.63559349 106.13820619 79.66601562 108.08398438 C66.08071102 135.20152851 66.08071102 135.20152851 58.03515625 137.89453125 C39.36288259 141.16131946 18.1206016 133.86180635 2.9140625 123.265625 C-0.53931426 120.7271551 -3.84153461 118.06566248 -7.0859375 115.265625 C-7.76398438 114.68425781 -8.44203125 114.10289062 -9.140625 113.50390625 C-19.57257022 103.84702524 -27.00362335 90.80399034 -31.0859375 77.265625 C-31.35156494 76.43345459 -31.61719238 75.60128418 -31.89086914 74.74389648 C-34.719277 64.53922997 -34.64429184 54.27614757 -34.6418457 43.75366211 C-34.64844709 40.57350485 -34.70319237 37.39640995 -34.75976562 34.21679688 C-34.92501406 14.2937576 -34.92501406 14.2937576 -28.0859375 7.265625 C-20.43417033 -0.31137295 -10.15584731 -0.03812818 0 0 Z " fill="#8574F1" transform="translate(184.0859375,147.734375)"/>
<path d="M0 0 C1.12152969 -0.0033284 2.24305939 -0.0066568 3.39857483 -0.01008606 C5.76107373 -0.01512933 8.1235797 -0.01749519 10.48608398 -0.01733398 C14.08263963 -0.01952211 17.67888907 -0.03771038 21.27539062 -0.05664062 C23.57942604 -0.05957483 25.88346291 -0.06155945 28.1875 -0.0625 C29.78633278 -0.07327827 29.78633278 -0.07327827 31.41746521 -0.08427429 C39.25225054 -0.0605159 47.1850055 0.29338621 53.91015625 4.73046875 C54.60625 5.16488281 55.30234375 5.59929687 56.01953125 6.046875 C61.45273727 11.43050797 63.72253045 17.37703486 63.82923889 24.94313049 C63.81598068 25.87455368 63.80272247 26.80597687 63.7890625 27.765625 C63.79147446 28.75815781 63.79388641 29.75069061 63.79637146 30.77330017 C63.79539692 32.86510222 63.78209792 34.95693132 63.75708008 37.04858398 C63.7230072 40.19802909 63.73638596 43.34462318 63.75585938 46.49414062 C63.74640222 61.46090423 62.26785243 75.23753874 55.53515625 88.85546875 C55.19742188 89.55406006 54.8596875 90.25265137 54.51171875 90.97241211 C44.35611272 111.13874119 26.36999771 126.4540251 5.08691406 133.89257812 C-6.61466435 137.52660869 -21.56533649 141.62710678 -33.0234375 135.62890625 C-38.95709325 130.85646055 -42.07384406 124.38849611 -45.46484375 117.73046875 C-45.97829346 116.73362061 -46.49174316 115.73677246 -47.02075195 114.7097168 C-50.78779426 107.34788262 -54.44084878 99.9317726 -58.02734375 92.48046875 C-58.49672363 91.50730713 -58.96610352 90.53414551 -59.44970703 89.53149414 C-60.09721924 88.17012329 -60.09721924 88.17012329 -60.7578125 86.78125 C-61.32665161 85.58689331 -61.32665161 85.58689331 -61.90698242 84.3684082 C-63.71974242 80.09245796 -64.05388651 76.24332279 -64.15234375 71.60546875 C-64.18972656 70.46980469 -64.22710937 69.33414063 -64.265625 68.1640625 C-63.66916466 57.83247003 -57.42278371 47.53981894 -53.08666992 38.30615234 C-52.02843428 36.04529861 -50.98772879 33.77688945 -49.94726562 31.5078125 C-40.85681591 11.9335315 -40.85681591 11.9335315 -31.27734375 6.23046875 C-30.38917969 5.68519531 -29.50101563 5.13992187 -28.5859375 4.578125 C-19.48419524 -0.09574265 -9.99367315 0.01041395 0 0 Z " fill="#6597EE" transform="translate(67.83984375,147.83203125)"/>
<path d="M0 0 C1.2375 -0.04350586 1.2375 -0.04350586 2.5 -0.08789062 C8.428974 -0.14906258 11.80503218 0.80217605 16.625 4.3125 C20.6141367 8.35966051 22.80640912 13.3735499 25.25 18.4375 C28.29862514 24.66478372 31.40793037 30.8408342 34.6953125 36.94580078 C47.37381242 60.55191497 47.37381242 60.55191497 44.625 74.3125 C41.62021989 83.81930429 37.21843901 92.87052013 32.90625 101.84301758 C31.87461793 104.00079914 30.86718357 106.16890068 29.859375 108.33789062 C24.15549619 120.37177385 17.6796956 130.52178602 4.625 135.3125 C3.69937256 135.65490723 2.77374512 135.99731445 1.82006836 136.35009766 C-3.9927913 137.97961255 -10.06321796 137.63791793 -16.05078125 137.6484375 C-17.38445676 137.65487757 -18.71813091 137.66160679 -20.05180359 137.66860962 C-22.83982616 137.68054024 -25.62772522 137.68429486 -28.41577148 137.68310547 C-31.96289041 137.68290259 -35.50920538 137.71019011 -39.05613422 137.74464989 C-41.80935702 137.76704776 -44.5623903 137.7709391 -47.31569481 137.76988602 C-49.25091381 137.77334828 -51.18607366 137.79492793 -53.12117004 137.81698608 C-61.59181067 137.77347551 -69.04741868 136.80091892 -75.8125 131.34765625 C-76.5859375 130.37119141 -76.5859375 130.37119141 -77.375 129.375 C-77.91125 128.72660156 -78.4475 128.07820313 -79 127.41015625 C-82.69678281 121.77046202 -82.6956064 116.6636765 -82.7109375 110.10546875 C-82.7175943 109.10727615 -82.7242511 108.10908356 -82.73110962 107.0806427 C-82.74122687 104.96499467 -82.74592693 102.84931478 -82.74560547 100.73364258 C-82.7499333 97.54907923 -82.78613656 94.36595473 -82.82421875 91.18164062 C-82.90851625 76.24643325 -81.85273487 62.33403853 -74.5625 48.9375 C-74.21703125 48.27741943 -73.8715625 47.61733887 -73.515625 46.93725586 C-70.56237879 41.41006086 -67.26693489 36.23135341 -63.375 31.3125 C-62.78332031 30.55710937 -62.19164062 29.80171875 -61.58203125 29.0234375 C-49.60539495 14.65147394 -32.31620078 5.79147396 -14.375 1.3125 C-13.62347656 1.12171875 -12.87195313 0.9309375 -12.09765625 0.734375 C-8.06611515 0.10968857 -4.07436346 0.04730298 0 0 Z " fill="#9175E9" transform="translate(232.375,-0.3125)"/>
<path d="M0 0 C2.44517509 1.65153248 4.77625329 3.37645353 7.08984375 5.20703125 C7.84523438 5.79871094 8.600625 6.39039062 9.37890625 7 C24.88488058 19.92164528 34.58001169 39.52090394 38.08984375 59.20703125 C38.18975632 60.79002136 38.24732242 62.37613832 38.2668457 63.9621582 C38.28609856 65.33432243 38.28609856 65.33432243 38.30574036 66.73420715 C38.31312729 67.71137192 38.32051422 68.68853668 38.328125 69.6953125 C38.33619675 70.71247849 38.34426849 71.72964447 38.35258484 72.77763367 C38.36639138 74.92685254 38.37712881 77.07609303 38.38500977 79.2253418 C38.39653784 81.41616266 38.41700255 83.60695526 38.4465332 85.79760742 C38.48930495 88.97203558 38.50539132 92.1456316 38.515625 95.3203125 C38.53313309 96.29140457 38.55064117 97.26249664 38.56867981 98.26301575 C38.54608171 105.40210799 37.02808243 110.64616581 32.44921875 116.1953125 C31.918125 116.63230469 31.38703125 117.06929687 30.83984375 117.51953125 C30.05867188 118.19435547 30.05867188 118.19435547 29.26171875 118.8828125 C21.50456339 123.61244499 14.26499989 123.66138662 5.38671875 123.640625 C4.07253967 123.64586685 2.7583606 123.6511087 1.40435791 123.6565094 C-1.36936086 123.66540535 -4.14279123 123.66306025 -6.91650391 123.65307617 C-10.43766293 123.64162508 -13.95781321 123.66175494 -17.47883987 123.69099331 C-20.87786951 123.71396956 -24.27667631 123.706878 -27.67578125 123.703125 C-28.92304993 123.71435898 -30.1703186 123.72559296 -31.4553833 123.73716736 C-42.62377727 123.64945968 -51.93070757 121.38682981 -60.77734375 114.37890625 C-66.21848981 108.8381055 -70.03394499 102.54600123 -73.36328125 95.578125 C-73.94272491 94.38812645 -73.94272491 94.38812645 -74.53387451 93.17408752 C-75.34113997 91.51135508 -76.14426261 89.84660529 -76.94335938 88.17993164 C-78.16109456 85.64257613 -79.39393178 83.11298665 -80.62890625 80.58398438 C-81.41626712 78.95746784 -82.20275576 77.33052872 -82.98828125 75.703125 C-83.35286438 74.9550206 -83.71744751 74.2069162 -84.09307861 73.43614197 C-87.30726847 66.69936298 -89.20498651 60.49298637 -89.28515625 52.95703125 C-89.31351562 51.755625 -89.341875 50.55421875 -89.37109375 49.31640625 C-88.58272393 37.90889138 -81.52251238 27.05912024 -76.39306641 17.09912109 C-75.03400003 14.45478158 -73.69234721 11.80208411 -72.3515625 9.1484375 C-71.47890423 7.44347789 -70.60524048 5.73903246 -69.73046875 4.03515625 C-69.33650909 3.25271545 -68.94254944 2.47027466 -68.53665161 1.66412354 C-65.57852542 -4.02799689 -62.1823151 -9.80217631 -56.5859375 -13.20703125 C-36.45601422 -17.61504365 -16.91136546 -10.41921711 0 0 Z " fill="#6E6CF0" transform="translate(92.91015625,13.79296875)"/>
</svg>
